<svg width="51" height="51" viewBox="0 0 51 51" fill="none" xmlns="http://www.w3.org/2000/svg">
<path d="M25.5 41.5969C25.2167 41.5969 24.951 41.5522 24.7031 41.463C24.4552 41.3752 24.225 41.225 24.0125 41.0125L9.98751 26.9875C9.56251 26.5625 9.35001 26.0575 9.35001 25.4724C9.35001 24.8887 9.56251 24.3844 9.98751 23.9594C10.4125 23.5344 10.9083 23.3219 11.475 23.3219C12.0417 23.3219 12.5375 23.5344 12.9625 23.9594L23.375 34.3719V10.5719C23.375 9.96979 23.579 9.47396 23.987 9.08438C24.3936 8.69479 24.8979 8.5 25.5 8.5C26.1021 8.5 26.6071 8.70329 27.0151 9.10988C27.4217 9.51788 27.625 10.0229 27.625 10.625V34.3719L38.0375 23.9594C38.4625 23.5344 38.9583 23.3219 39.525 23.3219C40.0917 23.3219 40.5875 23.5344 41.0125 23.9594C41.4375 24.3844 41.65 24.8887 41.65 25.4724C41.65 26.0575 41.4375 26.5625 41.0125 26.9875L26.9875 41.0125C26.775 41.225 26.5448 41.3752 26.2969 41.463C26.049 41.5522 25.7833 41.5969 25.5 41.5969Z" fill="white"/>
</svg>
