<svg width="83" height="98" viewBox="0 0 83 98" fill="none" xmlns="http://www.w3.org/2000/svg">
<path d="M40.5871 0C37.386 0.0644531 35.0871 0.6875 33.5618 1.80469L12.6575 12.998L1.03441 28.8084C-1.4148 32.5896 0.325432 39.8943 7.97387 35.2107L16.3528 24.1678C26.9875 14.9961 48.6868 19.2049 38.3957 37.617C33.3469 48.2732 35.7102 53.4725 42.22 55.6639L45.1848 45.6951C50.3196 34.1365 59.9016 32.0525 59.5149 22.7283L82.5461 24.3826L82.3313 0.300781L40.5871 0ZM28.9641 22.2127C25.2258 22.1482 21.552 23.6951 18.8879 25.9295L10.4875 36.9725C12.7864 38.7986 15.1067 37.8104 17.4055 35.5975C20.1125 36.9725 22.218 34.8455 23.9368 30.5916C24.6457 27.6912 25.6985 25.6502 28.9641 22.2127ZM11.8625 42.8377C11.7766 42.8377 11.6692 42.8377 11.5832 42.8592C10.8743 43.0096 10.0364 43.7615 9.47777 45.4803C8.8977 47.199 8.76879 49.6482 9.28441 52.2693C9.80004 54.8689 10.8743 57.0818 12.0774 58.4568C13.2375 59.8104 14.3118 60.1971 15.0207 60.0467C15.7512 59.9178 16.5676 59.1443 17.1262 57.4471C17.7063 55.7283 17.8567 53.2576 17.3411 50.658C16.8039 48.0369 15.7297 45.824 14.5481 44.4705C13.5168 43.2674 12.5715 42.8377 11.8625 42.8377ZM29.6086 65.783C27.9114 65.8045 25.7844 66.3416 23.7004 67.3514C21.3157 68.533 19.4465 70.1658 18.4368 71.6697C17.427 73.1521 17.3411 74.2693 17.6633 74.9354C17.9856 75.5799 18.9309 76.2029 20.7356 76.2889C22.5403 76.3963 24.968 75.9022 27.3528 74.7205C29.7375 73.5389 31.6067 71.9275 32.6164 70.4236C33.6262 68.9412 33.7121 67.8025 33.3899 67.158C33.0676 66.492 32.1223 65.8904 30.3176 65.8045C30.0813 65.783 29.8664 65.783 29.6086 65.783ZM8.63988 86.3221C7.63012 86.3436 6.70629 86.4939 5.88988 86.7303C4.06371 87.2674 3.01098 88.2342 2.66723 89.3728C2.30199 90.533 2.66723 91.908 3.89184 93.3904C5.13793 94.8514 7.22192 96.2478 9.80004 97.0213C12.3567 97.7947 14.8489 97.7732 16.6965 97.2146C18.5442 96.6775 19.5969 95.7107 19.9407 94.5721C20.2844 93.4119 19.9407 92.0369 18.6946 90.5545C17.47 89.0936 15.386 87.6971 12.8079 86.9236C11.3469 86.4939 9.92894 86.3006 8.63988 86.3221Z" fill="#E9CC7D"/>
</svg>
