<svg width="80" height="81" viewBox="0 0 80 81" fill="none" xmlns="http://www.w3.org/2000/svg">
<mask id="path-1-inside-1_3_341" fill="white">
<path d="M40.0001 64.2503C31.6667 64.2503 24.3001 59.9837 20.0001 53.5837C20.1001 46.917 33.3334 43.2503 40.0001 43.2503C46.6667 43.2503 59.9001 46.917 60.0001 53.5837C57.7964 56.865 54.8196 59.5542 51.332 61.4143C47.8443 63.2743 43.9528 64.2483 40.0001 64.2503ZM40.0001 16.917C42.6522 16.917 45.1958 17.9706 47.0711 19.8459C48.9465 21.7213 50.0001 24.2648 50.0001 26.917C50.0001 29.5692 48.9465 32.1127 47.0711 33.9881C45.1958 35.8634 42.6522 36.917 40.0001 36.917C37.3479 36.917 34.8044 35.8634 32.929 33.9881C31.0536 32.1127 30.0001 29.5692 30.0001 26.917C30.0001 24.2648 31.0536 21.7213 32.929 19.8459C34.8044 17.9706 37.3479 16.917 40.0001 16.917ZM40.0001 6.91699C35.6227 6.91699 31.2882 7.77918 27.244 9.45434C23.1998 11.1295 19.5251 13.5848 16.4299 16.6801C10.1786 22.9313 6.66675 31.4098 6.66675 40.2503C6.66675 49.0909 10.1786 57.5693 16.4299 63.8205C19.5251 66.9158 23.1998 69.3712 27.244 71.0463C31.2882 72.7215 35.6227 73.5837 40.0001 73.5837C48.8406 73.5837 57.3191 70.0718 63.5703 63.8205C69.8215 57.5693 73.3334 49.0909 73.3334 40.2503C73.3334 21.817 58.3334 6.91699 40.0001 6.91699Z"/>
</mask>
<path d="M40.0001 64.2503C31.6667 64.2503 24.3001 59.9837 20.0001 53.5837C20.1001 46.917 33.3334 43.2503 40.0001 43.2503C46.6667 43.2503 59.9001 46.917 60.0001 53.5837C57.7964 56.865 54.8196 59.5542 51.332 61.4143C47.8443 63.2743 43.9528 64.2483 40.0001 64.2503ZM40.0001 16.917C42.6522 16.917 45.1958 17.9706 47.0711 19.8459C48.9465 21.7213 50.0001 24.2648 50.0001 26.917C50.0001 29.5692 48.9465 32.1127 47.0711 33.9881C45.1958 35.8634 42.6522 36.917 40.0001 36.917C37.3479 36.917 34.8044 35.8634 32.929 33.9881C31.0536 32.1127 30.0001 29.5692 30.0001 26.917C30.0001 24.2648 31.0536 21.7213 32.929 19.8459C34.8044 17.9706 37.3479 16.917 40.0001 16.917ZM40.0001 6.91699C35.6227 6.91699 31.2882 7.77918 27.244 9.45434C23.1998 11.1295 19.5251 13.5848 16.4299 16.6801C10.1786 22.9313 6.66675 31.4098 6.66675 40.2503C6.66675 49.0909 10.1786 57.5693 16.4299 63.8205C19.5251 66.9158 23.1998 69.3712 27.244 71.0463C31.2882 72.7215 35.6227 73.5837 40.0001 73.5837C48.8406 73.5837 57.3191 70.0718 63.5703 63.8205C69.8215 57.5693 73.3334 49.0909 73.3334 40.2503C73.3334 21.817 58.3334 6.91699 40.0001 6.91699Z" fill="#87DA60"/>
<path d="M20.0001 53.5837L19.0002 53.5687L18.9955 53.8816L19.17 54.1413L20.0001 53.5837ZM60.0001 53.5837L60.8302 54.1412L61.0047 53.8815L61 53.5687L60.0001 53.5837ZM40.0001 6.91699V7.91699V6.91699ZM6.66675 40.2503H5.66675H6.66675ZM40.0001 73.5837V74.5837V73.5837ZM40.0001 63.2503C32.0147 63.2503 24.9528 59.1621 20.8301 53.026L19.17 54.1413C23.6474 60.8053 31.3188 65.2503 40.0001 65.2503V63.2503ZM21 53.5987C21.0196 52.2892 21.6796 51.0497 22.9158 49.8842C24.1563 48.7145 25.9103 47.6876 27.9258 46.8386C31.9613 45.1386 36.8046 44.2503 40.0001 44.2503V42.2503C36.5289 42.2503 31.4222 43.1954 27.1494 44.9954C25.0107 45.8964 23.0209 47.0362 21.5437 48.429C20.0622 49.8259 19.0306 51.5448 19.0002 53.5687L21 53.5987ZM40.0001 44.2503C43.1956 44.2503 48.0389 45.1386 52.0744 46.8386C54.0899 47.6876 55.8439 48.7145 57.0844 49.8842C58.3205 51.0497 58.9805 52.2892 59.0002 53.5987L61 53.5687C60.9696 51.5448 59.938 49.8259 58.4564 48.429C56.9792 47.0362 54.9894 45.8964 52.8508 44.9954C48.578 43.1954 43.4712 42.2503 40.0001 42.2503V44.2503ZM59.1699 53.0261C57.0576 56.1714 54.2043 58.749 50.8614 60.5319L51.8025 62.2966C55.4349 60.3594 58.5351 57.5587 60.8302 54.1412L59.1699 53.0261ZM50.8614 60.5319C47.5184 62.3148 43.7883 63.2484 39.9996 63.2503L40.0006 65.2503C44.1172 65.2482 48.1702 64.2338 51.8025 62.2966L50.8614 60.5319ZM40.0001 17.917C42.387 17.917 44.6762 18.8652 46.364 20.553L47.7783 19.1388C45.7154 17.0759 42.9175 15.917 40.0001 15.917V17.917ZM46.364 20.553C48.0519 22.2409 49.0001 24.53 49.0001 26.917H51.0001C51.0001 23.9996 49.8412 21.2017 47.7783 19.1388L46.364 20.553ZM49.0001 26.917C49.0001 29.3039 48.0519 31.5931 46.364 33.281L47.7783 34.6952C49.8412 32.6323 51.0001 29.8344 51.0001 26.917H49.0001ZM46.364 33.281C44.6762 34.9688 42.387 35.917 40.0001 35.917V37.917C42.9175 37.917 45.7154 36.7581 47.7783 34.6952L46.364 33.281ZM40.0001 35.917C37.6131 35.917 35.3239 34.9688 33.6361 33.281L32.2219 34.6952C34.2848 36.7581 37.0827 37.917 40.0001 37.917V35.917ZM33.6361 33.281C31.9483 31.5931 31.0001 29.3039 31.0001 26.917H29.0001C29.0001 29.8344 30.159 32.6323 32.2219 34.6952L33.6361 33.281ZM31.0001 26.917C31.0001 24.53 31.9483 22.2409 33.6361 20.553L32.2219 19.1388C30.159 21.2017 29.0001 23.9996 29.0001 26.917H31.0001ZM33.6361 20.553C35.3239 18.8652 37.6131 17.917 40.0001 17.917V15.917C37.0827 15.917 34.2848 17.0759 32.2219 19.1388L33.6361 20.553ZM40.0001 5.91699C35.4914 5.91699 31.0268 6.80505 26.8613 8.53046L27.6266 10.3782C31.5495 8.75332 35.754 7.91699 40.0001 7.91699V5.91699ZM26.8613 8.53046C22.6958 10.2559 18.9109 12.7848 15.7227 15.973L17.137 17.3872C20.1394 14.3848 23.7038 12.0031 27.6266 10.3782L26.8613 8.53046ZM15.7227 15.973C9.284 22.4117 5.66675 31.1446 5.66675 40.2503H7.66675C7.66675 31.675 11.0733 23.4509 17.137 17.3872L15.7227 15.973ZM5.66675 40.2503C5.66675 49.3561 9.284 58.0889 15.7227 64.5277L17.137 63.1134C11.0733 57.0498 7.66675 48.8257 7.66675 40.2503H5.66675ZM15.7227 64.5277C18.9109 67.7158 22.6958 70.2448 26.8613 71.9702L27.6266 70.1224C23.7038 68.4975 20.1394 66.1159 17.137 63.1134L15.7227 64.5277ZM26.8613 71.9702C31.0268 73.6956 35.4914 74.5837 40.0001 74.5837V72.5837C35.754 72.5837 31.5495 71.7473 27.6266 70.1224L26.8613 71.9702ZM40.0001 74.5837C49.1058 74.5837 57.8387 70.9664 64.2774 64.5277L62.8632 63.1134C56.7995 69.1771 48.5754 72.5837 40.0001 72.5837V74.5837ZM64.2774 64.5277C70.7162 58.0889 74.3334 49.3561 74.3334 40.2503H72.3334C72.3334 48.8257 68.9269 57.0498 62.8632 63.1134L64.2774 64.5277ZM74.3334 40.2503C74.3334 21.2628 58.8837 5.91699 40.0001 5.91699V7.91699C57.7831 7.91699 72.3334 22.3712 72.3334 40.2503H74.3334Z" fill="black" fill-opacity="0.3" mask="url(#path-1-inside-1_3_341)"/>
</svg>
