<svg width="76" height="77" viewBox="0 0 76 77" fill="none" xmlns="http://www.w3.org/2000/svg">
<path d="M74.7583 69.6959L60.4399 55.1863C65.0643 49.2057 67.5675 41.8219 67.5463 34.2241C67.5463 27.4552 65.5656 20.8383 61.8545 15.2102C58.1435 9.58209 52.8688 5.1955 46.6976 2.60517C40.5264 0.0148288 33.7357 -0.662922 27.1844 0.657621C20.633 1.97816 14.6152 5.23769 9.89194 10.024C5.16868 14.8103 1.9521 20.9085 0.648957 27.5473C-0.654188 34.1861 0.0146334 41.0674 2.57084 47.3211C5.12705 53.5747 9.45585 58.9197 15.0098 62.6803C20.5638 66.4409 27.0935 68.4481 33.7732 68.4481C41.2709 68.4696 48.5575 65.933 54.4592 61.2468L68.7777 75.7564C69.5743 76.5532 70.6486 77 71.768 77C72.8873 77 73.9617 76.5532 74.7583 75.7564C75.1519 75.359 75.4642 74.8867 75.6772 74.3667C75.8903 73.8467 76 73.2892 76 72.7261C76 72.1631 75.8903 71.6056 75.6772 71.0856C75.4642 70.5656 75.1519 70.0933 74.7583 69.6959V69.6959ZM8.44331 34.2241C8.44331 29.1474 9.92888 24.1848 12.7122 19.9637C15.4954 15.7426 19.4514 12.4526 24.0799 10.5099C28.7083 8.56714 33.8013 8.05883 38.7148 9.04923C43.6283 10.0396 48.1417 12.4843 51.6841 16.074C55.2265 19.6638 57.639 24.2374 58.6163 29.2165C59.5937 34.1956 59.0921 39.3566 57.1749 44.0468C55.2578 48.737 52.0112 52.7458 47.8457 55.5663C43.6802 58.3867 38.783 59.8921 33.7732 59.8921C27.0581 59.8827 20.6208 57.1754 15.8725 52.3637C11.1243 47.5521 8.45261 41.0288 8.44331 34.2241Z" fill="#E9CC7D"/>
</svg>
