<svg width="98" height="98" viewBox="0 0 98 98" fill="none" xmlns="http://www.w3.org/2000/svg">
<path d="M20.4167 85.75C18.1708 85.75 16.2476 84.951 14.6469 83.3531C13.049 81.7524 12.25 79.8292 12.25 77.5833V20.4167C12.25 18.1708 13.049 16.2476 14.6469 14.6469C16.2476 13.049 18.1708 12.25 20.4167 12.25H77.5833C78.1278 12.25 78.6382 12.3004 79.1146 12.4011C79.591 12.5045 80.0674 12.6583 80.5438 12.8625L72.9896 20.4167H20.4167V77.5833H77.5833V50.4292L85.75 42.2625V77.5833C85.75 79.8292 84.951 81.7524 83.3531 83.3531C81.7524 84.951 79.8292 85.75 77.5833 85.75H20.4167ZM47.0604 69.4167L23.9896 46.3458L29.7063 40.6292L47.0604 57.9833L84.525 20.5188L90.3438 26.1333L47.0604 69.4167Z" fill="#E9CC7D"/>
</svg>
