<svg width="97" height="97" viewBox="0 0 97 97" fill="none" xmlns="http://www.w3.org/2000/svg">
<path d="M59.0083 32.3332H84.875C87.0188 32.3332 89.0749 33.1848 90.5908 34.7008C92.1067 36.2167 92.9583 38.2727 92.9583 40.4165V48.9202C92.9594 49.9765 92.7535 51.0228 92.3521 52L79.8431 82.3731C79.538 83.1136 79.0197 83.7467 78.3541 84.1922C77.6885 84.6376 76.9055 84.8752 76.1046 84.8749H8.08334C7.01142 84.8749 5.98341 84.4491 5.22545 83.6911C4.46749 82.9331 4.04167 81.9051 4.04167 80.8332V40.4165C4.04167 39.3446 4.46749 38.3166 5.22545 37.5587C5.98341 36.8007 7.01142 36.3749 8.08334 36.3749H22.1564C22.8035 36.375 23.4411 36.2198 24.0157 35.9223C24.5903 35.6248 25.0851 35.1937 25.4585 34.6652L47.4977 3.43529C47.7763 3.04047 48.1871 2.75856 48.6558 2.64066C49.1244 2.52276 49.6197 2.57669 50.052 2.79267L57.3836 6.45846C59.4469 7.48974 61.0952 9.19594 62.0547 11.2936C63.0142 13.3912 63.227 15.754 62.658 17.9893L59.0083 32.3332ZM28.2917 42.793V76.7915H73.3967L84.875 48.9202V40.4165H59.0083C57.7772 40.4164 56.5625 40.135 55.4566 39.5939C54.3508 39.0528 53.3832 38.2663 52.6277 37.2943C51.8721 36.3223 51.3485 35.1906 51.0968 33.9855C50.8452 32.7804 50.8721 31.5338 51.1756 30.3407L54.8252 16.0008C54.9394 15.5535 54.8971 15.0806 54.7051 14.6607C54.5132 14.2409 54.1833 13.8994 53.7703 13.693L51.0988 12.3593L32.0625 39.3253C31.0521 40.756 29.7588 41.9281 28.2917 42.793ZM20.2083 44.4582H12.125V76.7915H20.2083V44.4582Z" fill="#E9CC7D"/>
</svg>
